<svg width="632" height="630" xmlns="http://www.w3.org/2000/svg" xmlns:xlink="http://www.w3.org/1999/xlink" xml:space="preserve" overflow="hidden"><defs><clipPath id="clip0"><rect x="324" y="84" width="632" height="630"/></clipPath><clipPath id="clip1"><rect x="325" y="84" width="630" height="630"/></clipPath><clipPath id="clip2"><rect x="325" y="84" width="630" height="630"/></clipPath><clipPath id="clip3"><rect x="325" y="84" width="630" height="630"/></clipPath></defs><g clip-path="url(#clip0)" transform="translate(-324 -84)"><g clip-path="url(#clip1)"><g clip-path="url(#clip2)"><g clip-path="url(#clip3)"><path d="M574.375 504 705.625 504C716.781 504 725.312 512.531 725.312 523.688 725.312 534.844 716.781 543.375 705.625 543.375L574.375 543.375C563.219 543.375 554.688 534.844 554.688 523.688 554.688 512.531 563.219 504 574.375 504Z" fill="#633A47" fill-rule="nonzero" fill-opacity="1"/><path d="M574.375 569.625 705.625 569.625C716.781 569.625 725.312 578.156 725.312 589.312 725.312 600.469 716.781 609 705.625 609L574.375 609C563.219 609 554.688 600.469 554.688 589.312 554.688 578.156 563.219 569.625 574.375 569.625Z" fill="#633A47" fill-rule="nonzero" fill-opacity="1"/><path d="M597.344 635.25C599.312 657.562 617.688 674.625 640 674.625 662.312 674.625 680.688 657.562 682.656 635.25L597.344 635.25Z" fill="#633A47" fill-rule="nonzero" fill-opacity="1"/><path d="M640 123.375C640 123.375 640 123.375 640 123.375 640 123.375 640 123.375 640 123.375 546.812 124.031 471.344 198.844 469.375 292.031L469.375 297.938C470.031 318.281 473.969 337.969 481.188 357 488.406 374.719 498.25 391.125 510.719 405.562 526.469 422.625 543.531 456.094 550.75 470.531 552.719 475.125 557.312 477.75 562.562 477.75L717.438 477.75C722.688 477.75 727.281 475.125 729.25 470.531 736.469 456.094 753.531 422.625 769.281 405.562 781.75 391.125 792.25 374.719 798.812 357 806.031 337.969 809.969 318.281 810.625 297.938L810.625 292.031C808.656 198.844 733.188 124.031 640 123.375ZM771.25 297.281C770.594 313.031 767.312 328.781 762.062 343.219 756.812 356.344 749.594 368.812 739.75 379.312 724.656 397.688 711.531 417.375 701.688 438.375L640 438.375 578.969 438.375C568.469 417.375 555.344 397.688 540.906 379.312 531.719 368.812 523.844 356.344 518.594 343.219 512.688 328.781 510.062 313.031 509.406 297.281L509.406 292.031C510.719 220.5 569.125 162.75 640.656 162.094 640.656 162.094 640.656 162.094 640.656 162.094 640.656 162.094 640.656 162.094 640.656 162.094 712.188 162.75 770.594 219.844 771.906 292.031L771.906 297.281Z" fill="#633A47" fill-rule="nonzero" fill-opacity="1"/></g></g></g></g></svg>